<mxfile host="65bd71144e">
    <diagram id="enUQgzLPmGvCg0wOn5mp" name="Página-1">
        <mxGraphModel dx="742" dy="1512" grid="1" gridSize="10" guides="1" tooltips="1" connect="1" arrows="1" fold="1" page="1" pageScale="1" pageWidth="1169" pageHeight="827" math="0" shadow="0">
            <root>
                <mxCell id="0"/>
                <mxCell id="1" parent="0"/>
                <mxCell id="32" value="" style="rounded=0;whiteSpace=wrap;html=1;strokeWidth=1;fillColor=none;" parent="1" vertex="1">
                    <mxGeometry x="190" y="120" width="800" height="390" as="geometry"/>
                </mxCell>
                <mxCell id="4" value="" style="verticalLabelPosition=bottom;html=1;verticalAlign=top;strokeWidth=3;shape=mxgraph.lean_mapping.physical_pull;pointerEvents=1;flipH=0;flipV=1;rotation=32;" parent="1" vertex="1">
                    <mxGeometry x="609.11" y="154.98" width="154.24" height="151.28" as="geometry"/>
                </mxCell>
                <mxCell id="6" value="" style="verticalLabelPosition=bottom;html=1;verticalAlign=top;strokeWidth=3;shape=mxgraph.lean_mapping.physical_pull;pointerEvents=1;rotation=-180;" parent="1" vertex="1">
                    <mxGeometry x="598.1598989898396" y="301.2528882541229" width="164.54455550270177" height="164.54711174587706" as="geometry"/>
                </mxCell>
                <mxCell id="8" value="" style="curved=1;endArrow=none;html=1;strokeWidth=3;exitX=0.731;exitY=0.073;exitDx=0;exitDy=0;exitPerimeter=0;endFill=0;" parent="1" source="6" edge="1">
                    <mxGeometry width="50" height="50" relative="1" as="geometry">
                        <mxPoint x="631.0688100903799" y="439.47246212065966" as="sourcePoint"/>
                        <mxPoint x="502.7240567982726" y="429.599635415907" as="targetPoint"/>
                        <Array as="points">
                            <mxPoint x="596.5144534348126" y="429.599635415907"/>
                        </Array>
                    </mxGeometry>
                </mxCell>
                <mxCell id="9" value="" style="endArrow=classic;html=1;strokeWidth=3;exitX=0.102;exitY=0.209;exitDx=0;exitDy=0;exitPerimeter=0;" parent="1" source="6" edge="1">
                    <mxGeometry width="50" height="50" relative="1" as="geometry">
                        <mxPoint x="782.4498011528656" y="447.69981770795346" as="sourcePoint"/>
                        <mxPoint x="827" y="431.9" as="targetPoint"/>
                    </mxGeometry>
                </mxCell>
                <mxCell id="11" value="24 HRS" style="text;html=1;strokeColor=none;fillColor=none;align=center;verticalAlign=middle;whiteSpace=wrap;rounded=0;strokeWidth=3;" parent="1" vertex="1">
                    <mxGeometry x="636.866037865515" y="205.93367897167917" width="98.72673330162107" height="49.364133523763115" as="geometry"/>
                </mxCell>
                <mxCell id="15" value="REUNIONES SCRUM" style="rounded=0;whiteSpace=wrap;html=1;strokeWidth=1;" parent="1" vertex="1">
                    <mxGeometry x="645" y="280.9" width="75.5" height="43" as="geometry"/>
                </mxCell>
                <mxCell id="16" value="" style="html=1;whiteSpace=wrap;shape=isoCube2;backgroundOutline=1;isoAngle=15;strokeWidth=1;" parent="1" vertex="1">
                    <mxGeometry x="837" y="380" width="124" height="95.9" as="geometry"/>
                </mxCell>
                <mxCell id="20" value="" style="html=1;whiteSpace=wrap;shape=isoCube2;backgroundOutline=1;isoAngle=15;strokeWidth=1;" parent="1" vertex="1">
                    <mxGeometry x="220" y="377" width="100" height="100" as="geometry"/>
                </mxCell>
                <mxCell id="21" value="" style="shape=flexArrow;endArrow=classic;html=1;strokeWidth=1;" parent="1" edge="1">
                    <mxGeometry width="50" height="50" relative="1" as="geometry">
                        <mxPoint x="330" y="427.58" as="sourcePoint"/>
                        <mxPoint x="400" y="427.58" as="targetPoint"/>
                    </mxGeometry>
                </mxCell>
                <mxCell id="26" value="" style="shape=flexArrow;endArrow=classic;html=1;strokeWidth=1;" parent="1" edge="1">
                    <mxGeometry width="50" height="50" relative="1" as="geometry">
                        <mxPoint x="270" y="280" as="sourcePoint"/>
                        <mxPoint x="269.73" y="325.8999999999999" as="targetPoint"/>
                    </mxGeometry>
                </mxCell>
                <mxCell id="28" value="BACKLOG DEL PRODUCTO:&lt;br&gt;Se le da prioridad a las caracteristicas deseadas por el cliente" style="rounded=0;whiteSpace=wrap;html=1;strokeWidth=1;fillColor=none;strokeColor=none;align=left;" parent="1" vertex="1">
                    <mxGeometry x="340" y="191.25" width="209" height="43" as="geometry"/>
                </mxCell>
                <mxCell id="29" value="SPRINT BACKLOG" style="rounded=0;whiteSpace=wrap;html=1;strokeWidth=1;fillColor=none;strokeColor=none;align=center;" parent="1" vertex="1">
                    <mxGeometry x="230" y="332.9" width="90" height="43" as="geometry"/>
                </mxCell>
                <mxCell id="30" value="Elementos del Backlog divididos en equipos" style="rounded=0;whiteSpace=wrap;html=1;strokeWidth=1;fillColor=none;strokeColor=none;align=center;" parent="1" vertex="1">
                    <mxGeometry x="401.5" y="332.9" width="131" height="43" as="geometry"/>
                </mxCell>
                <mxCell id="31" value="DEMOSTRACIÓN" style="rounded=0;whiteSpace=wrap;html=1;strokeWidth=1;fillColor=none;strokeColor=none;align=center;" parent="1" vertex="1">
                    <mxGeometry x="830" y="332.9" width="131" height="43" as="geometry"/>
                </mxCell>
                <mxCell id="33" value="SPRINT: 30 DIAS" style="rounded=0;whiteSpace=wrap;html=1;strokeWidth=1;fillColor=none;strokeColor=none;align=center;" parent="1" vertex="1">
                    <mxGeometry x="617.25" y="367.00000000000006" width="131" height="43" as="geometry"/>
                </mxCell>
                <mxCell id="34" value="" style="group" vertex="1" connectable="0" parent="1">
                    <mxGeometry x="404" y="377.9" width="137" height="100" as="geometry"/>
                </mxCell>
                <mxCell id="17" value="" style="html=1;whiteSpace=wrap;shape=isoCube2;backgroundOutline=1;isoAngle=15;strokeWidth=1;" parent="34" vertex="1">
                    <mxGeometry x="3" y="30" width="120" height="70" as="geometry"/>
                </mxCell>
                <mxCell id="18" value="" style="html=1;whiteSpace=wrap;shape=isoCube2;backgroundOutline=1;isoAngle=15;strokeWidth=1;" parent="34" vertex="1">
                    <mxGeometry x="17" y="17" width="120" height="70" as="geometry"/>
                </mxCell>
                <mxCell id="19" value="" style="html=1;whiteSpace=wrap;shape=isoCube2;backgroundOutline=1;isoAngle=15;strokeWidth=1;" parent="34" vertex="1">
                    <mxGeometry width="120" height="70" as="geometry"/>
                </mxCell>
                <mxCell id="36" value="" style="group" vertex="1" connectable="0" parent="1">
                    <mxGeometry x="220" y="134.99999999999997" width="100" height="131.25" as="geometry"/>
                </mxCell>
                <mxCell id="22" value="" style="html=1;whiteSpace=wrap;shape=isoCube2;backgroundOutline=1;isoAngle=15;strokeWidth=1;" parent="36" vertex="1">
                    <mxGeometry y="54.25" width="100" height="77" as="geometry"/>
                </mxCell>
                <mxCell id="23" value="" style="html=1;whiteSpace=wrap;shape=isoCube2;backgroundOutline=1;isoAngle=15;strokeWidth=1;" parent="36" vertex="1">
                    <mxGeometry y="29.22999999999999" width="100" height="77" as="geometry"/>
                </mxCell>
                <mxCell id="35" value="" style="html=1;whiteSpace=wrap;shape=isoCube2;backgroundOutline=1;isoAngle=15;strokeWidth=1;" vertex="1" parent="36">
                    <mxGeometry width="100" height="77" as="geometry"/>
                </mxCell>
            </root>
        </mxGraphModel>
    </diagram>
</mxfile>